<svg id="icons" enable-background="new 0 0 64 64" height="512" viewBox="0 0 64 64" width="512" xmlns="http://www.w3.org/2000/svg"><path d="m12.004.009c-.553 0-1 .447-1 1v12.113c-2.281.463-4.004 2.483-4.004 4.899v3.99c0 2.757 2.243 5 5 5h36.998c1.131 0 2.163-.392 3.002-1.027v1.328l-22.417 8.856c-.96.38-1.581 1.293-1.581 2.325v4.513h-1.498c-1.379 0-2.5 1.121-2.5 2.5 0 1.207.859 2.217 1.998 2.449v11.535c0 2.481 2.019 4.5 4.5 4.5s4.5-2.019 4.5-4.5v-11.534c1.139-.232 1.998-1.242 1.998-2.449 0-1.379-1.121-2.5-2.5-2.5h-1.498v-2.813l22.417-8.856c.96-.38 1.581-1.293 1.581-2.325v-9.002c0-1.379-1.121-2.5-2.5-2.5-.188 0-.37.024-.547.064-.2-2.211-1.821-4.019-3.957-4.453v-12.113c0-.553-.447-1-1-1s-1 .447-1 1v12.013h-34.992v-12.013c0-.553-.447-1-1-1zm22.496 44.998c.275 0 .5.225.5.5s-.225.5-.5.5h-7.996c-.275 0-.5-.225-.5-.5s.225-.5.5-.5zm-3.998 16.984c-1.379 0-2.5-1.121-2.5-2.5v-11.484h5v11.484c0 1.379-1.121 2.5-2.5 2.5zm23.498-41.98c0-.275.225-.5.5-.5s.5.225.5.5v9.002c0 .203-.128.391-.316.466l-23.049 9.106c-.382.15-.633.52-.633.93v3.492h-1v-4.513c0-.203.128-.391.316-.466l23.049-9.106c.382-.15.633-.52.633-.93zm-2.002-1.99v3.99c0 1.654-1.346 3-3 3h-36.998c-1.654 0-3-1.346-3-3v-3.99c0-1.654 1.346-3 3-3h36.998c1.654 0 3 1.346 3 3z"/></svg>