<svg id="icons" enable-background="new 0 0 64 64" height="512" viewBox="0 0 64 64" width="512" xmlns="http://www.w3.org/2000/svg"><path d="m1.5 62c-.553 0-1 .447-1 1s.447 1 1 1h61c.553 0 1-.447 1-1s-.447-1-1-1h-3.018v-2.102c2.279-.464 4-2.484 4-4.898 0-1.91-1.666-10.005-5-10.005s-5 8.095-5 10.005c0 2.414 1.721 4.435 4 4.898v2.102h-6.977v-40.997c.55-.004.994-.448.994-.999v-4c0-.553-.447-1-1-1h-11.933c-.028-.002-.053-.017-.082-.017s-.054.015-.082.017h-12.836c-.028-.002-.053-.017-.082-.017-.553 0-1 .447-1 1v3.017h-9.984-.001-.001c-.553 0-1 .447-1 1v41.996h-6.998v-2.102c2.279-.464 4-2.484 4-4.898 0-1.91-1.666-10.005-5-10.005s-5 8.095-5 10.005c0 2.414 1.721 4.435 4 4.898v2.102zm53.982-7c0-2.693 1.99-8.005 3-8.005s3 5.312 3 8.005c0 1.302-.839 2.401-2 2.815v-2.815c0-.553-.447-1-1-1s-1 .447-1 1v2.815c-1.161-.414-2-1.513-2-2.815zm-52.982 0c0-2.693 1.99-8.005 3-8.005s3 5.312 3 8.005c0 1.302-.839 2.401-2 2.815v-2.815c0-.553-.447-1-1-1s-1 .447-1 1v2.815c-1.161-.414-2-1.513-2-2.815zm29.998 7h-1v-5.002h1zm17.002-42.996h-10.016v-2h10.016zm-23.016-2h11v2h-11zm-10.986 4h33.008v40.996h-14.008v-6.002c0-.553-.447-1-1-1h-3c-.553 0-1 .447-1 1v6.002h-14z"/><path d="m21.5 23.004h-3c-.553 0-1 .447-1 1v4.999c0 .553.447 1 1 1h3c.553 0 1-.447 1-1v-4.999c0-.553-.447-1-1-1zm-1 4.999h-1v-2.999h1z"/><path d="m27.498 23.004h-2.998c-.553 0-1 .447-1 1v4.999c0 .553.447 1 1 1h2.998c.553 0 1-.447 1-1v-4.999c0-.553-.447-1-1-1zm-1 4.999h-.998v-2.999h.998z"/><path d="m30.498 30.003h3c.553 0 1-.447 1-1v-4.999c0-.553-.447-1-1-1h-3c-.553 0-1 .447-1 1v4.999c0 .553.447 1 1 1zm1-4.999h1v2.999h-1z"/><path d="m36.498 30.003h2.998c.553 0 1-.447 1-1v-4.999c0-.553-.447-1-1-1h-2.998c-.553 0-1 .447-1 1v4.999c0 .553.447 1 1 1zm1-4.999h.998v2.999h-.998z"/><path d="m42.504 30.003h2.998c.553 0 1-.447 1-1v-4.999c0-.553-.447-1-1-1h-2.998c-.553 0-1 .447-1 1v4.999c0 .553.447 1 1 1zm1-4.999h.998v2.999h-.998z"/><path d="m21.5 31.004h-3c-.553 0-1 .447-1 1v4.999c0 .553.447 1 1 1h3c.553 0 1-.447 1-1v-4.999c0-.553-.447-1-1-1zm-1 4.999h-1v-2.999h1z"/><path d="m27.498 31.004h-2.998c-.553 0-1 .447-1 1v4.999c0 .553.447 1 1 1h2.998c.553 0 1-.447 1-1v-4.999c0-.553-.447-1-1-1zm-1 4.999h-.998v-2.999h.998z"/><path d="m30.498 38.003h3c.553 0 1-.447 1-1v-4.999c0-.553-.447-1-1-1h-3c-.553 0-1 .447-1 1v4.999c0 .553.447 1 1 1zm1-4.999h1v2.999h-1z"/><path d="m36.498 38.003h2.998c.553 0 1-.447 1-1v-4.999c0-.553-.447-1-1-1h-2.998c-.553 0-1 .447-1 1v4.999c0 .553.447 1 1 1zm1-4.999h.998v2.999h-.998z"/><path d="m42.504 38.003h2.998c.553 0 1-.447 1-1v-4.999c0-.553-.447-1-1-1h-2.998c-.553 0-1 .447-1 1v4.999c0 .553.447 1 1 1zm1-4.999h.998v2.999h-.998z"/><path d="m21.5 39.004h-3c-.553 0-1 .447-1 1v4.999c0 .553.447 1 1 1h3c.553 0 1-.447 1-1v-4.999c0-.553-.447-1-1-1zm-1 4.999h-1v-2.999h1z"/><path d="m27.498 39.004h-2.998c-.553 0-1 .447-1 1v4.999c0 .553.447 1 1 1h2.998c.553 0 1-.447 1-1v-4.999c0-.553-.447-1-1-1zm-1 4.999h-.998v-2.999h.998z"/><path d="m30.498 46.003h3c.553 0 1-.447 1-1v-4.999c0-.553-.447-1-1-1h-3c-.553 0-1 .447-1 1v4.999c0 .553.447 1 1 1zm1-4.999h1v2.999h-1z"/><path d="m36.498 46.003h2.998c.553 0 1-.447 1-1v-4.999c0-.553-.447-1-1-1h-2.998c-.553 0-1 .447-1 1v4.999c0 .553.447 1 1 1zm1-4.999h.998v2.999h-.998z"/><path d="m42.504 46.003h2.998c.553 0 1-.447 1-1v-4.999c0-.553-.447-1-1-1h-2.998c-.553 0-1 .447-1 1v4.999c0 .553.447 1 1 1zm1-4.999h.998v2.999h-.998z"/><path d="m21.5 47.004h-3c-.553 0-1 .447-1 1v4.999c0 .553.447 1 1 1h3c.553 0 1-.447 1-1v-4.999c0-.553-.447-1-1-1zm-1 4.999h-1v-2.999h1z"/><path d="m27.498 47.004h-2.998c-.553 0-1 .447-1 1v4.999c0 .553.447 1 1 1h2.998c.553 0 1-.447 1-1v-4.999c0-.553-.447-1-1-1zm-1 4.999h-.998v-2.999h.998z"/><path d="m30.498 54.003h3c.553 0 1-.447 1-1v-4.999c0-.553-.447-1-1-1h-3c-.553 0-1 .447-1 1v4.999c0 .553.447 1 1 1zm1-4.999h1v2.999h-1z"/><path d="m36.498 54.003h2.998c.553 0 1-.447 1-1v-4.999c0-.553-.447-1-1-1h-2.998c-.553 0-1 .447-1 1v4.999c0 .553.447 1 1 1zm1-4.999h.998v2.999h-.998z"/><path d="m42.504 54.003h2.998c.553 0 1-.447 1-1v-4.999c0-.553-.447-1-1-1h-2.998c-.553 0-1 .447-1 1v4.999c0 .553.447 1 1 1zm1-4.999h.998v2.999h-.998z"/><path d="m19.5 0c-.553 0-1 .447-1 1v4.434l-4.277 2.566h-.723c-.553 0-1 .447-1 1v4c0 .553.447 1 1 1h12c.553 0 1-.447 1-1v-4c0-.553-.447-1-1-1h-.723l-4.277-2.566v-4.434c0-.553-.447-1-1-1zm5 12h-10v-2h10zm-6.39-4 1.39-.834 1.39.834z"/></svg>