<svg width="512" height="512" viewBox="0 0 512 512" fill="none" xmlns="http://www.w3.org/2000/svg">
<g clip-path="url(#clip0)">
<path d="M476.144 -0.0322266H204.056C200.608 -0.0322266 197.552 2.16777 196.464 5.44777L164.432 101.808C163.616 104.248 164.032 106.928 165.544 109.008C167.048 111.096 169.456 112.328 172.032 112.328H292.08V215.792H284.176C284.088 215.792 284.024 215.744 283.944 215.744C251.296 215.744 221.208 231.08 201.832 255.904H171.88V247.904C171.88 243.48 168.304 239.904 163.88 239.904H139.864V223.904C139.864 219.48 136.288 215.904 131.864 215.904H35.8638C31.4398 215.904 27.8638 219.48 27.8638 223.904C27.8638 228.328 31.4398 231.904 35.8638 231.904H123.864V399.92H35.8638C31.4398 399.92 27.8638 403.496 27.8638 407.92C27.8638 412.344 31.4398 415.92 35.8638 415.92H131.864C136.288 415.92 139.864 412.344 139.864 407.92V399.92H163.88C168.304 399.92 171.88 396.344 171.88 391.92V383.92L201.96 383.904C221.344 408.632 251.344 423.904 283.944 423.904H292.088V488.04C292.088 501.216 302.816 511.944 315.992 511.944H347.52C347.688 511.952 347.824 512.04 347.992 512.04C361.224 512.04 371.992 501.272 371.992 488.04V423.904H380.056C380.44 423.904 380.776 423.736 381.144 423.688C398.28 423.104 412.056 409.072 412.056 391.8C412.056 382.184 407.704 373.64 400.976 367.768C407.704 361.896 412.056 353.352 412.056 343.736C412.056 334.136 407.72 325.608 401.008 319.744C407.72 313.88 412.056 305.352 412.056 295.752C412.056 286.152 407.728 277.624 401.016 271.752C407.728 265.88 412.056 257.352 412.056 247.752C412.056 230.104 397.704 215.752 380.056 215.752C379.944 215.752 379.856 215.808 379.744 215.816L372.208 215.808C372.176 215.808 372.144 215.792 372.112 215.792V112.328H476.152C480.576 112.328 484.152 108.752 484.152 104.328V7.96777C484.144 3.54377 480.56 -0.0322266 476.144 -0.0322266V-0.0322266ZM209.832 15.9678H436.136V96.3278H183.112L209.832 15.9678ZM139.856 255.896H155.872V383.912H139.856V255.896ZM200.76 348.896C199.296 344.728 194.752 342.544 190.568 343.984C186.4 345.448 184.2 350.008 185.656 354.176C187.32 358.944 189.36 363.512 191.648 367.904L171.88 367.912V271.896H191.576C189.36 276.168 187.376 280.608 185.744 285.24C184.272 289.408 186.472 293.976 190.632 295.44C191.504 295.744 192.408 295.896 193.288 295.896C196.584 295.896 199.68 293.84 200.832 290.552C213.192 255.432 246.496 231.832 283.744 231.744C283.816 231.744 283.872 231.784 283.936 231.784H348.032L363.904 231.792V295.736C363.904 295.768 363.888 295.792 363.888 295.816C363.888 304.528 356.872 311.616 348.192 311.784H348.032H348.024C348 311.784 347.976 311.8 347.952 311.8C347.928 311.8 347.904 311.784 347.88 311.784C347.824 311.784 347.776 311.8 347.72 311.8C338.96 311.712 331.864 304.584 331.864 295.816V271.8C331.864 267.376 328.288 263.8 323.864 263.8H283.928C279.504 263.8 275.928 267.376 275.928 271.8C275.928 276.224 279.504 279.8 283.928 279.8H315.864V295.816C315.864 305.408 320.2 313.936 326.912 319.808C320.208 325.672 315.88 334.192 315.88 343.784C315.88 353.384 320.208 361.912 326.92 367.784C320.208 373.656 315.88 382.184 315.88 391.784C315.88 397.68 317.6 403.144 320.384 407.896H300.216C300.16 407.896 300.112 407.864 300.056 407.864C300 407.864 299.952 407.896 299.896 407.896H283.912C246.52 407.896 213.096 384.184 200.76 348.896V348.896ZM348.04 359.792C348.032 359.792 348.032 359.792 348.04 359.792C348.024 359.792 348.008 359.8 348 359.8C347.96 359.8 347.928 359.776 347.888 359.776C347.832 359.776 347.784 359.792 347.728 359.792C338.976 359.704 331.888 352.568 331.888 343.792C331.888 335.024 338.984 327.896 347.728 327.808C347.784 327.808 347.832 327.824 347.888 327.824C348 327.824 348.088 327.792 348.192 327.792L380.024 327.824H380.032C380.144 327.824 380.232 327.76 380.344 327.76C389.024 327.928 396.048 335.008 396.048 343.728C396.048 352.56 388.872 359.744 380.048 359.744C379.936 359.744 379.848 359.8 379.736 359.808L348.04 359.792ZM355.984 488.032C355.984 492.36 352.512 495.856 348.216 495.984C348.128 495.984 348.064 495.936 347.984 495.936H315.984C311.624 495.936 308.08 492.392 308.08 488.032V423.896H355.984V488.032ZM380.048 407.792C379.856 407.792 379.696 407.888 379.512 407.904H364.144C364.088 407.904 364.04 407.872 363.984 407.872C363.928 407.872 363.88 407.904 363.824 407.904H348.424C348.24 407.888 348.08 407.792 347.888 407.792C339.064 407.792 331.888 400.616 331.888 391.792C331.888 383.016 338.984 375.88 347.728 375.792C347.784 375.792 347.832 375.808 347.888 375.808C347.928 375.808 347.96 375.784 347.992 375.784C348.008 375.784 348.016 375.792 348.024 375.792L380.024 375.808H380.032C380.072 375.808 380.104 375.784 380.144 375.784C388.92 375.84 396.048 382.992 396.048 391.792C396.048 400.608 388.864 407.792 380.048 407.792V407.792ZM380.048 311.728C379.88 311.728 379.744 311.816 379.584 311.824L375.44 311.816C378.168 307.136 379.84 301.768 379.872 295.984C379.872 295.928 379.904 295.88 379.904 295.824V279.808H380.048C380.144 279.808 380.216 279.76 380.304 279.752C389 279.896 396.048 287 396.048 295.744C396.048 304.544 388.904 311.688 380.128 311.736C380.096 311.736 380.072 311.728 380.048 311.728V311.728ZM396.048 247.744C396.048 256.52 388.952 263.656 380.208 263.744C380.152 263.744 380.104 263.728 380.048 263.728C380 263.728 379.952 263.752 379.904 263.76V231.808H380.048C380.12 231.808 380.184 231.768 380.248 231.768C388.976 231.872 396.048 238.992 396.048 247.744V247.744ZM356.104 215.8L348.032 215.792H308.08V112.328H356.104V215.8ZM468.144 96.3278H452.136V15.9678H468.144V96.3278Z" fill="#E0B084"/>
</g>
<defs>
<clipPath id="clip0">
<rect width="512" height="512" fill="white"/>
</clipPath>
</defs>
</svg>
