<svg width="512" height="512" viewBox="0 0 512 512" fill="none" xmlns="http://www.w3.org/2000/svg">
<g clip-path="url(#clip0)">
<path d="M504.064 288.008H480.144V208.008C480.144 203.584 476.568 200.008 472.144 200.008H8.04804C3.62404 200.008 0.0480352 203.584 0.0480352 208.008C0.0480352 212.432 3.62404 216.008 8.04804 216.008H117.76C114.984 220.768 109.88 224.008 103.984 224.008H8.04804C3.62404 224.008 0.0480352 227.584 0.0480352 232.008C0.0480352 236.432 3.62404 240.008 8.04804 240.008H103.984C118.848 240.008 131.272 229.776 134.848 216.008H464.136V256.008H295.976C291.552 256.008 287.976 259.584 287.976 264.008C287.976 268.432 291.552 272.008 295.976 272.008H464.136V288.008H7.93604C3.51204 288.008 -0.0639648 291.584 -0.0639648 296.008C-0.0639648 300.432 3.51204 304.008 7.93604 304.008H496.064V320.008H7.93604C3.51204 320.008 -0.0639648 323.584 -0.0639648 328.008C-0.0639648 332.432 3.51204 336.008 7.93604 336.008H432.048V448C432.048 452.424 435.624 456 440.048 456C444.472 456 448.048 452.424 448.048 448V336.008H464.048V448C464.048 452.424 467.624 456 472.048 456C476.472 456 480.048 452.424 480.048 448V336.008H504.064C508.488 336.008 512.064 332.432 512.064 328.008V296.008C512.064 291.584 508.488 288.008 504.064 288.008V288.008Z" fill="#E0B084"/>
<path d="M63.936 192.008H119.936C119.952 192.008 119.96 192 119.976 192C120.016 192 120.056 192.024 120.096 192.024H487.8V207.888C487.8 212.312 491.376 215.888 495.8 215.888C500.224 215.888 503.8 212.312 503.8 207.888V160.024C503.8 155.6 500.224 152.024 495.8 152.024H127.936V128.008C127.936 92.7198 99.224 64.0078 63.936 64.0078C28.648 64.0078 -0.0639648 92.7198 -0.0639648 128.008C-0.0639648 163.296 28.648 192.008 63.936 192.008V192.008ZM487.8 168.024V176.024H127.936V168.024H487.8ZM63.936 80.0078C90.408 80.0078 111.936 101.536 111.936 128.008V176.008H63.936C37.464 176.008 15.936 154.48 15.936 128.008C15.936 101.536 37.472 80.0078 63.936 80.0078V80.0078Z" fill="#E0B084"/>
<path d="M63.9678 160.016C81.6158 160.016 95.9678 145.664 95.9678 128.016C95.9678 110.368 81.6158 96.0156 63.9678 96.0156C46.3198 96.0156 31.9678 110.368 31.9678 128.016C31.9678 145.664 46.3198 160.016 63.9678 160.016ZM63.9678 112.016C72.7918 112.016 79.9678 119.192 79.9678 128.016C79.9678 136.84 72.7918 144.016 63.9678 144.016C55.1438 144.016 47.9678 136.84 47.9678 128.016C47.9678 119.192 55.1518 112.016 63.9678 112.016Z" fill="#E0B084"/>
</g>
<defs>
<clipPath id="clip0">
<rect width="512" height="512" fill="white"/>
</clipPath>
</defs>
</svg>
