<svg width="512" height="512" viewBox="0 0 512 512" fill="none" xmlns="http://www.w3.org/2000/svg">
<g clip-path="url(#clip0)">
<path d="M12 496C7.576 496 4 499.576 4 504C4 508.424 7.576 512 12 512H500C504.424 512 508 508.424 508 504C508 499.576 504.424 496 500 496H475.856V479.184C494.088 475.472 507.856 459.312 507.856 440C507.856 424.72 494.528 359.96 467.856 359.96C441.184 359.96 427.856 424.72 427.856 440C427.856 459.312 441.624 475.48 459.856 479.184V496H404.04V168.024C408.44 167.992 411.992 164.44 411.992 160.032V128.032C411.992 123.608 408.416 120.032 403.992 120.032H308.528C308.304 120.016 308.104 119.896 307.872 119.896C307.64 119.896 307.44 120.016 307.216 120.032H204.528C204.304 120.016 204.104 119.896 203.872 119.896C199.448 119.896 195.872 123.472 195.872 127.896V152.032H116H115.992H115.984C111.56 152.032 107.984 155.608 107.984 160.032V496H52V479.184C70.232 475.472 84 459.312 84 440C84 424.72 70.672 359.96 44 359.96C17.328 359.96 4 424.72 4 440C4 459.312 17.768 475.48 36 479.184V496H12ZM443.856 440C443.856 418.456 459.776 375.96 467.856 375.96C475.936 375.96 491.856 418.456 491.856 440C491.856 450.416 485.144 459.208 475.856 462.52V440C475.856 435.576 472.28 432 467.856 432C463.432 432 459.856 435.576 459.856 440V462.52C450.568 459.208 443.856 450.416 443.856 440ZM20 440C20 418.456 35.92 375.96 44 375.96C52.08 375.96 68 418.456 68 440C68 450.416 61.288 459.208 52 462.52V440C52 435.576 48.424 432 44 432C39.576 432 36 435.576 36 440V462.52C26.712 459.208 20 450.416 20 440ZM259.984 496H251.984V455.984H259.984V496ZM396 152.032H315.872V136.032H396V152.032ZM211.872 136.032H299.872V152.032H211.872V136.032ZM123.984 168.032H388.048V496H275.984V447.984C275.984 443.56 272.408 439.984 267.984 439.984H243.984C239.56 439.984 235.984 443.56 235.984 447.984V496H123.984V168.032Z" fill="#E0B084"/>
<path d="M172 184.032H148C143.576 184.032 140 187.608 140 192.032V232.024C140 236.448 143.576 240.024 148 240.024H172C176.424 240.024 180 236.448 180 232.024V192.032C180 187.608 176.424 184.032 172 184.032ZM164 224.024H156V200.032H164V224.024Z" fill="#E0B084"/>
<path d="M219.984 184.032H196C191.576 184.032 188 187.608 188 192.032V232.024C188 236.448 191.576 240.024 196 240.024H219.984C224.408 240.024 227.984 236.448 227.984 232.024V192.032C227.984 187.608 224.408 184.032 219.984 184.032ZM211.984 224.024H204V200.032H211.984V224.024Z" fill="#E0B084"/>
<path d="M243.984 240.024H267.984C272.408 240.024 275.984 236.448 275.984 232.024V192.032C275.984 187.608 272.408 184.032 267.984 184.032H243.984C239.56 184.032 235.984 187.608 235.984 192.032V232.024C235.984 236.448 239.56 240.024 243.984 240.024V240.024ZM251.984 200.032H259.984V224.024H251.984V200.032Z" fill="#E0B084"/>
<path d="M291.984 240.024H315.968C320.392 240.024 323.968 236.448 323.968 232.024V192.032C323.968 187.608 320.392 184.032 315.968 184.032H291.984C287.56 184.032 283.984 187.608 283.984 192.032V232.024C283.984 236.448 287.56 240.024 291.984 240.024ZM299.984 200.032H307.968V224.024H299.984V200.032Z" fill="#E0B084"/>
<path d="M340.032 240.024H364.016C368.44 240.024 372.016 236.448 372.016 232.024V192.032C372.016 187.608 368.44 184.032 364.016 184.032H340.032C335.608 184.032 332.032 187.608 332.032 192.032V232.024C332.032 236.448 335.608 240.024 340.032 240.024ZM348.032 200.032H356.016V224.024H348.032V200.032Z" fill="#E0B084"/>
<path d="M172 248.032H148C143.576 248.032 140 251.608 140 256.032V296.024C140 300.448 143.576 304.024 148 304.024H172C176.424 304.024 180 300.448 180 296.024V256.032C180 251.608 176.424 248.032 172 248.032V248.032ZM164 288.024H156V264.032H164V288.024Z" fill="#E0B084"/>
<path d="M219.984 248.032H196C191.576 248.032 188 251.608 188 256.032V296.024C188 300.448 191.576 304.024 196 304.024H219.984C224.408 304.024 227.984 300.448 227.984 296.024V256.032C227.984 251.608 224.408 248.032 219.984 248.032V248.032ZM211.984 288.024H204V264.032H211.984V288.024Z" fill="#E0B084"/>
<path d="M243.984 304.024H267.984C272.408 304.024 275.984 300.448 275.984 296.024V256.032C275.984 251.608 272.408 248.032 267.984 248.032H243.984C239.56 248.032 235.984 251.608 235.984 256.032V296.024C235.984 300.448 239.56 304.024 243.984 304.024V304.024ZM251.984 264.032H259.984V288.024H251.984V264.032Z" fill="#E0B084"/>
<path d="M291.984 304.024H315.968C320.392 304.024 323.968 300.448 323.968 296.024V256.032C323.968 251.608 320.392 248.032 315.968 248.032H291.984C287.56 248.032 283.984 251.608 283.984 256.032V296.024C283.984 300.448 287.56 304.024 291.984 304.024ZM299.984 264.032H307.968V288.024H299.984V264.032Z" fill="#E0B084"/>
<path d="M340.032 304.024H364.016C368.44 304.024 372.016 300.448 372.016 296.024V256.032C372.016 251.608 368.44 248.032 364.016 248.032H340.032C335.608 248.032 332.032 251.608 332.032 256.032V296.024C332.032 300.448 335.608 304.024 340.032 304.024ZM348.032 264.032H356.016V288.024H348.032V264.032Z" fill="#E0B084"/>
<path d="M172 312.032H148C143.576 312.032 140 315.608 140 320.032V360.024C140 364.448 143.576 368.024 148 368.024H172C176.424 368.024 180 364.448 180 360.024V320.032C180 315.608 176.424 312.032 172 312.032ZM164 352.024H156V328.032H164V352.024Z" fill="#E0B084"/>
<path d="M219.984 312.032H196C191.576 312.032 188 315.608 188 320.032V360.024C188 364.448 191.576 368.024 196 368.024H219.984C224.408 368.024 227.984 364.448 227.984 360.024V320.032C227.984 315.608 224.408 312.032 219.984 312.032ZM211.984 352.024H204V328.032H211.984V352.024Z" fill="#E0B084"/>
<path d="M243.984 368.024H267.984C272.408 368.024 275.984 364.448 275.984 360.024V320.032C275.984 315.608 272.408 312.032 267.984 312.032H243.984C239.56 312.032 235.984 315.608 235.984 320.032V360.024C235.984 364.448 239.56 368.024 243.984 368.024V368.024ZM251.984 328.032H259.984V352.024H251.984V328.032Z" fill="#E0B084"/>
<path d="M291.984 368.024H315.968C320.392 368.024 323.968 364.448 323.968 360.024V320.032C323.968 315.608 320.392 312.032 315.968 312.032H291.984C287.56 312.032 283.984 315.608 283.984 320.032V360.024C283.984 364.448 287.56 368.024 291.984 368.024ZM299.984 328.032H307.968V352.024H299.984V328.032Z" fill="#E0B084"/>
<path d="M340.032 368.024H364.016C368.44 368.024 372.016 364.448 372.016 360.024V320.032C372.016 315.608 368.44 312.032 364.016 312.032H340.032C335.608 312.032 332.032 315.608 332.032 320.032V360.024C332.032 364.448 335.608 368.024 340.032 368.024ZM348.032 328.032H356.016V352.024H348.032V328.032Z" fill="#E0B084"/>
<path d="M172 376.032H148C143.576 376.032 140 379.608 140 384.032V424.024C140 428.448 143.576 432.024 148 432.024H172C176.424 432.024 180 428.448 180 424.024V384.032C180 379.608 176.424 376.032 172 376.032ZM164 416.024H156V392.032H164V416.024Z" fill="#E0B084"/>
<path d="M219.984 376.032H196C191.576 376.032 188 379.608 188 384.032V424.024C188 428.448 191.576 432.024 196 432.024H219.984C224.408 432.024 227.984 428.448 227.984 424.024V384.032C227.984 379.608 224.408 376.032 219.984 376.032ZM211.984 416.024H204V392.032H211.984V416.024Z" fill="#E0B084"/>
<path d="M243.984 432.024H267.984C272.408 432.024 275.984 428.448 275.984 424.024V384.032C275.984 379.608 272.408 376.032 267.984 376.032H243.984C239.56 376.032 235.984 379.608 235.984 384.032V424.024C235.984 428.448 239.56 432.024 243.984 432.024V432.024ZM251.984 392.032H259.984V416.024H251.984V392.032Z" fill="#E0B084"/>
<path d="M291.984 432.024H315.968C320.392 432.024 323.968 428.448 323.968 424.024V384.032C323.968 379.608 320.392 376.032 315.968 376.032H291.984C287.56 376.032 283.984 379.608 283.984 384.032V424.024C283.984 428.448 287.56 432.024 291.984 432.024ZM299.984 392.032H307.968V416.024H299.984V392.032Z" fill="#E0B084"/>
<path d="M340.032 432.024H364.016C368.44 432.024 372.016 428.448 372.016 424.024V384.032C372.016 379.608 368.44 376.032 364.016 376.032H340.032C335.608 376.032 332.032 379.608 332.032 384.032V424.024C332.032 428.448 335.608 432.024 340.032 432.024ZM348.032 392.032H356.016V416.024H348.032V392.032Z" fill="#E0B084"/>
<path d="M156 0C151.576 0 148 3.576 148 8V43.472L113.784 64H108C103.576 64 100 67.576 100 72V104C100 108.424 103.576 112 108 112H204C208.424 112 212 108.424 212 104V72C212 67.576 208.424 64 204 64H198.216L164 43.472V8C164 3.576 160.424 0 156 0ZM196 96H116V80H196V96ZM144.88 64L156 57.328L167.12 64H144.88Z" fill="#E0B084"/>
</g>
<defs>
<clipPath id="clip0">
<rect width="512" height="512" fill="white"/>
</clipPath>
</defs>
</svg>
