<svg id="icons" enable-background="new 0 0 64 64" height="512" viewBox="0 0 64 64" width="512" xmlns="http://www.w3.org/2000/svg"><path d="m59.518-.004h-34.011c-.431 0-.813.275-.949.685l-4.004 12.045c-.102.305-.05.64.139.9.188.261.489.415.811.415h15.006v12.933h-.988c-.011 0-.019-.006-.029-.006-4.081 0-7.842 1.917-10.264 5.02h-3.744v-1c0-.553-.447-1-1-1h-3.002v-2c0-.553-.447-1-1-1h-12c-.553 0-1 .447-1 1s.447 1 1 1h11v21.002h-11c-.553 0-1 .447-1 1s.447 1 1 1h12c.553 0 1-.447 1-1v-1h3.002c.553 0 1-.447 1-1v-1l3.76-.002c2.423 3.091 6.173 5 10.248 5h1.018v8.017c0 1.647 1.341 2.988 2.988 2.988h3.941c.021.001.038.012.059.012 1.654 0 3-1.346 3-3v-8.017h1.008c.048 0 .09-.021.136-.027 2.142-.073 3.864-1.827 3.864-3.986 0-1.202-.544-2.27-1.385-3.004.841-.734 1.385-1.802 1.385-3.004 0-1.2-.542-2.266-1.381-2.999.839-.733 1.381-1.799 1.381-2.999s-.541-2.266-1.38-3c.839-.734 1.38-1.8 1.38-3 0-2.206-1.794-4-4-4-.014 0-.025.007-.039.008l-.942-.001c-.004 0-.008-.002-.012-.002v-12.933h13.005c.553 0 1-.447 1-1v-12.045c-.001-.553-.449-1-1.001-1zm-33.289 2h28.288v10.045h-31.628zm-8.747 29.991h2.002v16.002h-2.002zm7.613 11.625c-.183-.521-.751-.794-1.274-.614-.521.183-.796.753-.614 1.274.208.596.463 1.167.749 1.716l-2.471.001v-12.002h2.462c-.277.534-.525 1.089-.729 1.668-.184.521.091 1.092.611 1.275.109.038.222.057.332.057.412 0 .799-.257.943-.668 1.545-4.39 5.708-7.34 10.364-7.351.009 0 .016.005.024.005h8.012l1.984.001v7.993c0 .004-.002.007-.002.01 0 1.089-.877 1.975-1.962 1.996h-.02-.001c-.003 0-.006.002-.009.002s-.006-.002-.009-.002c-.007 0-.013.002-.02.002-1.095-.011-1.982-.902-1.982-1.998v-3.002c0-.553-.447-1-1-1h-4.992c-.553 0-1 .447-1 1s.447 1 1 1h3.992v2.002c0 1.199.542 2.265 1.381 2.999-.838.733-1.379 1.798-1.379 2.997 0 1.2.541 2.266 1.38 3-.839.734-1.38 1.8-1.38 3 0 .737.215 1.42.563 2.014h-2.521c-.007 0-.013-.004-.02-.004s-.013.004-.02.004h-1.998c-4.674 0-8.852-2.964-10.394-7.375zm18.41 1.362c-.001 0-.001 0 0 0-.002 0-.004.001-.005.001-.005 0-.009-.003-.014-.003-.007 0-.013.002-.02.002-1.094-.011-1.98-.903-1.98-2 0-1.096.887-1.987 1.98-1.998.007 0 .013.002.02.002.014 0 .025-.004.038-.004l3.979.004h.001c.014 0 .025-.008.039-.008 1.085.021 1.963.906 1.963 1.996 0 1.104-.897 2.002-2 2.002-.014 0-.025.007-.039.008zm.993 16.03c0 .541-.434.978-.971.994-.011 0-.019-.006-.029-.006h-4c-.545 0-.988-.443-.988-.988v-8.017h5.988zm3.008-10.03c-.024 0-.044.012-.067.014h-1.921c-.007 0-.013-.004-.02-.004s-.013.004-.02.004h-1.925c-.023-.002-.043-.014-.067-.014-1.103 0-2-.897-2-2 0-1.097.887-1.989 1.98-2 .007 0 .013.002.02.002.005 0 .009-.003.013-.003.002 0 .003.001.004.001l4 .002h.001c.005 0 .009-.003.014-.003 1.097.007 1.988.901 1.988 2.001 0 1.102-.898 2-2 2zm0-12.008c-.021 0-.038.011-.058.012l-.518-.001c.341-.585.55-1.256.554-1.979 0-.007.004-.013.004-.02v-2.002h.018c.012 0 .021-.006.032-.007 1.087.018 1.968.906 1.968 1.999 0 1.1-.893 1.993-1.99 1.999-.004 0-.007-.001-.01-.001zm2-7.998c0 1.097-.887 1.989-1.98 2-.007 0-.013-.002-.02-.002-.006 0-.012.003-.018.004v-3.994h.018c.009 0 .017-.005.025-.005 1.091.013 1.975.903 1.975 1.997zm-4.993-3.993-1.009-.001h-4.994v-12.933h6.003zm14.005-14.934h-2.001v-10.045h2.001z"/></svg>