<svg width="119" height="105" viewBox="0 0 119 105" fill="none" xmlns="http://www.w3.org/2000/svg">
<path d="M97.9702 2.17729C104.597 2.17729 110.75 4.44924 116.051 8.6145L116.525 8.99315V6.05855C111.034 2.08263 104.597 0 97.8756 0C79.8893 0 65.2162 15.1464 65.2162 33.7007C65.2162 52.255 79.8893 67.4013 97.8756 67.4013C104.597 67.4013 111.129 65.224 116.619 61.3428V58.4082C111.318 62.6681 104.786 65.0347 97.9702 65.0347C81.2146 65.0347 67.5828 50.9297 67.5828 33.606C67.5828 16.2823 81.2146 2.17729 97.9702 2.17729Z" fill="#E0B084"/>
<path d="M69.1845 0H67.1019L38.9865 67.4013H41.5424L52.4289 41.0845L68.0485 3.59727L83.6682 41.0845L94.4921 66.8145L97.2053 67.4013L69.1845 0Z" fill="#E0B084"/>
<path d="M32.1981 0H30.1154L2 67.4013H4.55595L15.4424 41.0845L31.0621 3.59727L57.6629 67.4013H60.2188L32.1981 0Z" fill="#E0B084"/>
<path d="M25.7797 83.4023H21.747V95.9359H20.0052V83.4023H15.9725V81.9255H25.7797V83.4023Z" fill="#E0B084"/>
<path d="M46.4167 95.9359H44.1447L38.8813 88.7603V95.9359H37.1206V81.9255L42.3082 81.9634C43.3054 81.9634 44.1195 82.3421 44.7506 83.0994C45.3943 83.8567 45.7162 84.7339 45.7162 85.7311C45.7162 86.2612 45.6215 86.7534 45.4322 87.2078C45.2555 87.6622 44.9588 88.0787 44.5423 88.4574C44.0753 88.8361 43.5641 89.1074 43.0087 89.2715H41.1533L46.4167 95.9359ZM42.5733 83.5916C42.4092 83.5285 42.2325 83.478 42.0432 83.4402C41.8664 83.3897 41.7024 83.3644 41.5509 83.3644H38.8813V88.0598H42.0053C42.6111 88.0598 43.0782 87.8515 43.4063 87.435C43.7471 87.0059 43.9175 86.4884 43.9175 85.8825C43.9175 85.3776 43.8039 84.9169 43.5767 84.5004C43.3495 84.0839 43.015 83.781 42.5733 83.5916Z" fill="#E0B084"/>
<path d="M67.1672 95.9359H65.1982L63.3995 91.5813H57.8332L56.0346 95.9359H54.217L60.3703 81.5469H60.8247L67.1672 95.9359ZM62.8505 90.3128L60.5217 84.2922L58.2498 90.3128H62.8505Z" fill="#E0B084"/>
<path d="M83.9229 95.1597C83.4306 95.3995 82.9383 95.5888 82.4461 95.7277C81.9538 95.8665 81.4679 95.9359 80.9883 95.9359H75.687V81.9255H81.6509C83.4306 82.1022 84.8379 82.8911 85.8729 84.2922C86.908 85.6806 87.4254 87.2709 87.4254 89.0633C87.4254 90.3886 87.1351 91.594 86.5545 92.6795C85.9739 93.7649 85.0967 94.5917 83.9229 95.1597ZM85.57 88.0219C85.469 86.9238 85.0399 85.9519 84.2826 85.1063C83.5379 84.2606 82.6228 83.7179 81.5373 83.478H77.3342V94.4213H80.9504C82.3767 94.4213 83.5126 93.8533 84.3583 92.7173C85.204 91.5813 85.6268 90.2876 85.6268 88.8361C85.6268 88.5584 85.6079 88.287 85.57 88.0219Z" fill="#E0B084"/>
<path d="M104.465 95.9359H96.8541V81.9255H104.465V83.4402H98.577V87.5865H104.465V89.0254H98.5391V94.4213H104.465V95.9359Z" fill="#E0B084"/>
<path d="M1 103V104H2H116.619H117.619V103V74.4834V73.4834H116.619H2H1V74.4834V103Z" stroke="#E0B084" stroke-width="2"/>
</svg>
