<svg width="117" height="104" viewBox="0 0 117 104" fill="none" xmlns="http://www.w3.org/2000/svg">
<path d="M96.9702 2.17729C103.597 2.17729 109.75 4.44924 115.051 8.6145L115.525 8.99315V6.05855C110.034 2.08263 103.597 0 96.8756 0C78.8892 0 64.2162 15.1464 64.2162 33.7007C64.2162 52.255 78.8892 67.4013 96.8756 67.4013C103.597 67.4013 110.129 65.224 115.619 61.3428V58.4082C110.318 62.6681 103.786 65.0347 96.9702 65.0347C80.2146 65.0347 66.5828 50.9297 66.5828 33.606C66.5828 16.2823 80.2146 2.17729 96.9702 2.17729Z" fill="#E0B084"/>
<path d="M68.1845 0H66.1019L37.9865 67.4013H40.5424L51.4289 41.0845L67.0485 3.59727L82.6682 41.0845L93.4921 66.8145L96.2053 67.4013L68.1845 0Z" fill="#E0B084"/>
<path d="M31.1981 0H29.1154L1 67.4013H3.55595L14.4424 41.0845L30.0621 3.59727L56.6629 67.4013H59.2188L31.1981 0Z" fill="#E0B084"/>
<path d="M24.7797 83.4023H20.747V95.9359H19.0051V83.4023H14.9724V81.9255H24.7797V83.4023Z" fill="#E0B084"/>
<path d="M45.4166 95.9359H43.1447L37.8813 88.7603V95.9359H36.1205V81.9255L41.3082 81.9634C42.3053 81.9634 43.1194 82.3421 43.7505 83.0994C44.3942 83.8567 44.7161 84.7339 44.7161 85.7311C44.7161 86.2612 44.6214 86.7534 44.4321 87.2078C44.2554 87.6622 43.9588 88.0787 43.5422 88.4574C43.0752 88.8361 42.564 89.1074 42.0087 89.2715H40.1532L45.4166 95.9359ZM41.5732 83.5916C41.4091 83.5285 41.2324 83.478 41.0431 83.4402C40.8664 83.3897 40.7023 83.3644 40.5508 83.3644H37.8813V88.0598H41.0052C41.6111 88.0598 42.0781 87.8515 42.4063 87.435C42.7471 87.0059 42.9175 86.4884 42.9175 85.8825C42.9175 85.3776 42.8039 84.9169 42.5767 84.5004C42.3495 84.0839 42.015 83.781 41.5732 83.5916Z" fill="#E0B084"/>
<path d="M66.1671 95.9359H64.1981L62.3995 91.5813H56.8332L55.0346 95.9359H53.217L59.3702 81.5469H59.8246L66.1671 95.9359ZM61.8504 90.3128L59.5217 84.2922L57.2497 90.3128H61.8504Z" fill="#E0B084"/>
<path d="M82.9228 95.1597C82.4305 95.3995 81.9383 95.5888 81.446 95.7277C80.9538 95.8665 80.4678 95.9359 79.9882 95.9359H74.687V81.9255H80.6508C82.4305 82.1022 83.8379 82.8911 84.8729 84.2922C85.9079 85.6806 86.4254 87.2709 86.4254 89.0633C86.4254 90.3886 86.1351 91.594 85.5545 92.6795C84.9739 93.7649 84.0966 94.5917 82.9228 95.1597ZM84.57 88.0219C84.469 86.9238 84.0398 85.9519 83.2825 85.1063C82.5378 84.2606 81.6227 83.7179 80.5372 83.478H76.3341V94.4213H79.9503C81.3766 94.4213 82.5126 93.8533 83.3582 92.7173C84.2039 91.5813 84.6268 90.2876 84.6268 88.8361C84.6268 88.5584 84.6078 88.287 84.57 88.0219Z" fill="#E0B084"/>
<path d="M103.465 95.9359H95.854V81.9255H103.465V83.4402H97.5769V87.5865H103.465V89.0254H97.539V94.4213H103.465V95.9359Z" fill="#E0B084"/>
<path d="M0.5 103V103.5H1H115.619H116.119V103V74.4834V73.9834H115.619H1H0.5V74.4834V103Z" stroke="#E0B084"/>
</svg>
