<svg fill="#E0B084" id="icons" enable-background="new 0 0 64 64" height="512" viewBox="0 0 64 64" width="512" xmlns="http://www.w3.org/2000/svg"><path d="m63.008 36.001h-2.99v-10c0-.553-.447-1-1-1h-58.012c-.553 0-1 .447-1 1s.447 1 1 1h13.714c-.347.595-.985 1-1.722 1h-11.992c-.553 0-1 .447-1 1s.447 1 1 1h11.992c1.858 0 3.411-1.279 3.858-3h41.161v5h-21.02c-.553 0-1 .447-1 1s.447 1 1 1h21.02v2h-57.025c-.553 0-1 .447-1 1s.447 1 1 1h61.016v2h-61.016c-.553 0-1 .447-1 1s.447 1 1 1h53.014v13.999c0 .553.447 1 1 1s1-.447 1-1v-13.999h2v13.999c0 .553.447 1 1 1s1-.447 1-1v-13.999h3.002c.553 0 1-.447 1-1v-4c0-.553-.447-1-1-1z"/><path d="m7.992 24.001h7c.002 0 .003-.001.005-.001.005 0 .01.003.015.003h45.963v1.983c0 .553.447 1 1 1s1-.447 1-1v-5.983c0-.553-.447-1-1-1h-45.983v-3.002c0-4.411-3.589-8-8-8s-8 3.589-8 8 3.589 8 8 8zm52.983-2.998v1h-44.983v-1zm-52.983-11.002c3.309 0 6 2.691 6 6v6h-6c-3.309 0-6-2.691-6-6s2.692-6 6-6z"/><path d="m7.996 20.002c2.206 0 4-1.794 4-4s-1.794-4-4-4-4 1.794-4 4 1.794 4 4 4zm0-6c1.103 0 2 .897 2 2s-.897 2-2 2-2-.897-2-2 .898-2 2-2z"/></svg>