<svg width="512" height="512" viewBox="0 0 512 512" fill="none" xmlns="http://www.w3.org/2000/svg">
<path d="M96.032 0.0722656C91.608 0.0722656 88.032 3.64827 88.032 8.07227V104.976C69.784 108.68 56 124.84 56 144.168V176.088C56 198.144 73.944 216.088 96 216.088H391.984C401.032 216.088 409.288 212.952 416 207.872V218.496L236.664 289.344C228.984 292.384 224.016 299.688 224.016 307.944V344.048H212.032C201 344.048 192.032 353.016 192.032 364.048C192.032 373.704 198.904 381.784 208.016 383.64V475.92C208.016 495.768 224.168 511.92 244.016 511.92C263.864 511.92 280.016 495.768 280.016 475.92V383.648C289.128 381.792 296 373.712 296 364.056C296 353.024 287.032 344.056 276 344.056H264.016V321.552L443.352 250.704C451.032 247.664 456 240.36 456 232.104V160.088C456 149.056 447.032 140.088 436 140.088C434.496 140.088 433.04 140.28 431.624 140.6C430.024 122.912 417.056 108.448 399.968 104.976V8.07227C399.968 3.64827 396.392 0.0722656 391.968 0.0722656C387.544 0.0722656 383.968 3.64827 383.968 8.07227V104.176H104.032V8.07227C104.032 3.64827 100.456 0.0722656 96.032 0.0722656V0.0722656ZM276 360.056C278.2 360.056 280 361.856 280 364.056C280 366.256 278.2 368.056 276 368.056H212.032C209.832 368.056 208.032 366.256 208.032 364.056C208.032 361.856 209.832 360.056 212.032 360.056H276ZM244.016 495.928C232.984 495.928 224.016 486.96 224.016 475.928V384.056H264.016V475.928C264.016 486.96 255.048 495.928 244.016 495.928V495.928ZM432 160.088C432 157.888 433.8 156.088 436 156.088C438.2 156.088 440 157.888 440 160.088V232.104C440 233.728 438.976 235.232 437.472 235.832L253.08 308.68C250.024 309.88 248.016 312.84 248.016 316.12V344.056H240.016V307.952C240.016 306.328 241.04 304.824 242.544 304.224L426.936 231.376C429.992 230.176 432 227.216 432 223.936V160.088ZM415.984 144.168V176.088C415.984 189.32 405.216 200.088 391.984 200.088H96C82.768 200.088 72 189.32 72 176.088V144.168C72 130.936 82.768 120.168 96 120.168H391.984C405.216 120.168 415.984 130.936 415.984 144.168V144.168Z" fill="#E0B084"/>
</svg>
