<svg width="512" height="512" viewBox="0 0 512 512" fill="none" xmlns="http://www.w3.org/2000/svg">
<g clip-path="url(#clip0)">
<path d="M479.432 21.1838C478.648 19.1198 477.088 17.4478 475.056 16.6158C475.032 16.6078 475.024 16.5918 475.008 16.5838L441.808 3.08783C441.8 3.08783 441.784 3.08783 441.776 3.07983C431.656 -1.08017 416.448 -1.07217 406.336 3.10383L379.728 14.0958C373.632 16.6078 362.528 16.6078 356.432 14.0958L329.816 3.10383C319.688 -1.08017 304.424 -1.08017 294.304 3.10383L267.704 14.0958C261.608 16.6078 250.504 16.6078 244.408 14.0958L217.8 3.10383C207.672 -1.08017 192.408 -1.08017 182.288 3.10383L155.68 14.0958C149.584 16.6078 138.48 16.6078 132.384 14.0958L105.76 3.11183C95.664 -1.05617 80.464 -1.07217 70.336 3.07983C70.32 3.08783 70.304 3.07983 70.288 3.08783L36.992 16.5758C36.976 16.5838 36.968 16.5998 36.944 16.6078C36.088 16.9598 35.336 17.5038 34.656 18.1278C34.152 18.5838 33.792 19.1358 33.424 19.6958C33.096 20.1998 32.768 20.6798 32.552 21.2558C32.232 22.1118 32.016 23.0078 32.016 23.9358C32.016 23.9518 32 23.9678 32 23.9918V504C32 504.544 32.208 505.032 32.312 505.544C32.408 506.04 32.392 506.528 32.584 507.008C32.592 507.032 32.608 507.04 32.616 507.064C32.664 507.184 32.76 507.272 32.808 507.392C33.168 508.152 33.624 508.824 34.168 509.408C34.352 509.608 34.576 509.776 34.784 509.96C35.288 510.408 35.84 510.776 36.44 511.08C36.696 511.208 36.944 511.336 37.224 511.44C38.112 511.776 39.04 512 40 512C41 512 42.024 511.816 43.008 511.416L43.112 511.376L43.12 511.368L76.304 497.92C76.312 497.912 76.32 497.904 76.336 497.896H76.352C82.448 495.384 93.552 495.384 99.648 497.896L126.256 508.888C136.384 513.072 151.648 513.072 161.768 508.888L188.376 497.896C194.472 495.384 205.576 495.384 211.672 497.896L238.28 508.888C248.408 513.072 263.672 513.072 273.792 508.888L300.392 497.896C306.488 495.384 317.592 495.384 323.688 497.896L350.304 508.888C355.368 510.984 361.712 512.032 368.064 512.032C374.416 512.032 380.76 510.984 385.824 508.888L412.432 497.896C418.528 495.384 429.624 495.376 435.72 497.904C435.728 497.904 435.736 497.904 435.752 497.912C435.76 497.912 435.768 497.92 435.776 497.928L468.872 511.376C468.872 511.376 468.88 511.376 468.88 511.384L468.984 511.424C469.968 511.824 470.984 512.008 471.992 512.008C472.952 512.008 473.872 511.784 474.768 511.448C475.048 511.344 475.288 511.216 475.56 511.08C476.152 510.784 476.696 510.416 477.192 509.976C477.408 509.792 477.64 509.616 477.832 509.408C478.368 508.824 478.816 508.16 479.176 507.408C479.232 507.288 479.328 507.2 479.376 507.072C479.384 507.048 479.4 507.032 479.408 507.016C479.624 506.488 479.616 505.936 479.712 505.4C479.808 504.928 480 504.504 480 504.008V503.912C480 503.904 480 503.888 480 503.88V471.904C480 471.896 480 471.88 480 471.872V359.928C480 359.92 480 359.904 480 359.896V247.952C480 247.944 480 247.928 480 247.92V135.976C480 135.968 480 135.952 480 135.944V23.9998C480 23.9838 479.992 23.9678 479.992 23.9518C479.984 22.9998 479.768 22.0718 479.432 21.1838V21.1838ZM441.808 451.096C441.8 451.096 441.784 451.096 441.776 451.088C431.656 446.928 416.448 446.928 406.336 451.112L379.728 462.104C378.64 462.56 377.352 462.896 376 463.184V367.448C379.536 366.944 382.904 366.12 385.832 364.912L412.44 353.92C418.536 351.408 429.632 351.4 435.728 353.928C435.736 353.928 435.744 353.928 435.76 353.936C435.768 353.936 435.776 353.944 435.784 353.952L464 365.408V460.112L441.808 451.096ZM70.336 451.08C70.32 451.088 70.304 451.08 70.288 451.088L48 460.12V365.408L76.304 353.936C76.312 353.928 76.32 353.92 76.336 353.912H76.352C82.448 351.4 93.552 351.4 99.648 353.912L126.256 364.904C129.152 366.104 132.496 366.92 136 367.424V463.16C134.688 462.872 133.432 462.536 132.368 462.096L105.76 451.104C95.664 446.936 80.464 446.92 70.336 451.08V451.08ZM76.304 129.984C76.312 129.976 76.32 129.968 76.336 129.96H76.352C82.448 127.448 93.552 127.448 99.648 129.96L126.256 140.952C129.152 142.152 132.496 142.968 136 143.472V239.208C134.688 238.92 133.432 238.584 132.368 238.144L105.76 227.152C95.664 222.984 80.464 222.968 70.336 227.12C70.32 227.128 70.304 227.12 70.288 227.128L48 236.168V141.456L76.304 129.984ZM435.736 129.968C435.744 129.968 435.752 129.968 435.768 129.976C435.776 129.976 435.784 129.984 435.792 129.992L464 141.456V236.16L441.808 227.144C441.8 227.144 441.784 227.144 441.776 227.136C431.656 222.976 416.448 222.976 406.336 227.16L379.728 238.152C378.64 238.608 377.352 238.944 376 239.232V143.496C379.536 142.992 382.904 142.168 385.832 140.96L412.44 129.968C418.536 127.448 429.64 127.44 435.736 129.968V129.968ZM441.808 339.12C441.8 339.112 441.784 339.12 441.776 339.112C431.656 334.944 416.448 334.952 406.336 339.136L379.728 350.128C378.64 350.576 377.352 350.912 376 351.2V255.472C379.536 254.968 382.904 254.144 385.832 252.936L412.44 241.944C418.536 239.432 429.632 239.424 435.728 241.952C435.736 241.96 435.744 241.952 435.76 241.96C435.768 241.96 435.776 241.968 435.784 241.976L464 253.432V348.136L441.808 339.12ZM70.336 339.104C70.32 339.112 70.304 339.104 70.288 339.112L48 348.144V253.432L76.304 241.96C76.312 241.952 76.32 241.944 76.336 241.936H76.352C82.448 239.424 93.552 239.424 99.648 241.936L126.256 252.928C129.152 254.12 132.496 254.944 136 255.448V351.184C134.688 350.896 133.432 350.56 132.368 350.12L105.76 339.128C95.664 334.96 80.464 334.952 70.336 339.104V339.104ZM152 255.464C155.512 254.952 158.864 254.136 161.776 252.936L188.384 241.944C194.48 239.432 205.584 239.432 211.68 241.944L238.288 252.936C241.176 254.128 244.504 254.944 248 255.456V351.184C246.696 350.896 245.456 350.568 244.4 350.128L217.792 339.136C207.664 334.952 192.4 334.952 182.28 339.136L155.672 350.128C154.6 350.576 153.336 350.912 152.008 351.192V255.464H152ZM264 255.464C267.52 254.96 270.888 254.136 273.808 252.936L300.408 241.944C306.504 239.432 317.608 239.432 323.704 241.944L350.32 252.936C353.2 254.128 356.52 254.944 360 255.448V351.176C358.712 350.896 357.48 350.56 356.432 350.128L329.816 339.136C319.688 334.952 304.424 334.952 294.304 339.136L267.704 350.128C266.624 350.576 265.352 350.912 264.008 351.2V255.464H264ZM360 239.192C358.712 238.912 357.48 238.576 356.432 238.144L329.816 227.152C319.688 222.968 304.424 222.968 294.304 227.152L267.704 238.144C266.624 238.592 265.352 238.928 264.008 239.216V143.488C267.528 142.984 270.896 142.16 273.816 140.96L300.416 129.968C306.512 127.456 317.616 127.456 323.712 129.968L350.328 140.96C353.208 142.152 356.528 142.968 360.008 143.472V239.192H360ZM248 239.2C246.696 238.912 245.456 238.584 244.4 238.144L217.792 227.152C207.664 222.968 192.4 222.968 182.28 227.152L155.672 238.144C154.6 238.592 153.336 238.928 152.008 239.208V143.488C155.52 142.976 158.872 142.16 161.784 140.96L188.392 129.968C194.488 127.456 205.592 127.456 211.688 129.968L238.296 140.96C241.184 142.152 244.512 142.968 248.008 143.48V239.2H248ZM152 367.44C155.512 366.928 158.864 366.112 161.776 364.912L188.384 353.92C194.48 351.408 205.584 351.408 211.68 353.92L238.288 364.912C241.176 366.104 244.504 366.92 248 367.432V463.16C246.696 462.872 245.456 462.544 244.4 462.104L217.792 451.112C207.664 446.928 192.4 446.928 182.28 451.112L155.672 462.104C154.6 462.552 153.336 462.888 152.008 463.168V367.44H152ZM264 367.44C267.52 366.936 270.888 366.112 273.808 364.912L300.408 353.92C306.504 351.408 317.608 351.408 323.704 353.92L350.32 364.912C353.2 366.104 356.52 366.92 360 367.424V463.152C358.712 462.872 357.48 462.536 356.432 462.104L329.816 451.112C319.688 446.928 304.424 446.928 294.304 451.112L267.704 462.104C266.624 462.552 265.352 462.888 264.008 463.176V367.44H264ZM385.832 28.8798L412.44 17.8878C418.536 15.3758 429.632 15.3678 435.728 17.8958C435.736 17.9038 435.744 17.8958 435.76 17.9038C435.768 17.9038 435.776 17.9118 435.784 17.9198L464 29.3838V124.184L441.808 115.168C441.8 115.16 441.784 115.168 441.776 115.16C431.656 111 416.448 111 406.336 115.184L379.728 126.176C378.64 126.624 377.352 126.96 376 127.248V31.4238C379.536 30.9118 382.904 30.0958 385.832 28.8798V28.8798ZM273.808 28.8798L300.408 17.8878C306.504 15.3758 317.608 15.3758 323.704 17.8878L350.32 28.8798C353.2 30.0798 356.52 30.8878 360 31.3998V127.224C358.712 126.944 357.48 126.608 356.432 126.176L329.816 115.184C319.688 111 304.424 111 294.304 115.184L267.704 126.176C266.624 126.624 265.352 126.96 264.008 127.248V31.4158C267.52 30.9038 270.888 30.0878 273.808 28.8798ZM161.776 28.8798L188.384 17.8878C194.48 15.3758 205.584 15.3758 211.68 17.8878L238.288 28.8798C241.176 30.0798 244.504 30.8878 248 31.4078V127.232C246.696 126.944 245.456 126.616 244.4 126.176L217.792 115.184C207.664 111 192.4 111 182.28 115.184L155.672 126.176C154.6 126.624 153.336 126.96 152.008 127.24V31.4158C155.512 30.8958 158.864 30.0878 161.776 28.8798V28.8798ZM99.648 17.8878L126.256 28.8798C129.16 30.0798 132.504 30.8958 136 31.4078V127.24C134.688 126.952 133.432 126.616 132.368 126.176L105.76 115.184C95.664 111.016 80.464 111.008 70.336 115.152C70.32 115.16 70.304 115.152 70.288 115.16L48 124.184V29.3838L76.304 17.9118C76.312 17.9038 76.32 17.8958 76.336 17.8878H76.352C82.448 15.3758 93.552 15.3758 99.648 17.8878V17.8878ZM406.336 483.12L379.728 494.112C373.632 496.624 362.528 496.624 356.432 494.112L329.816 483.12C319.688 478.936 304.424 478.936 294.304 483.12L267.704 494.112C261.608 496.624 250.504 496.624 244.408 494.112L217.8 483.12C207.672 478.936 192.408 478.936 182.288 483.12L155.68 494.112C149.584 496.624 138.48 496.624 132.384 494.112L105.76 483.12C95.664 478.952 80.464 478.944 70.336 483.088C70.32 483.096 70.304 483.088 70.288 483.096L48 492.128V477.384L76.304 465.912C76.312 465.904 76.32 465.896 76.336 465.888H76.352C82.448 463.376 93.552 463.376 99.648 465.888L126.256 476.88C136.384 481.064 151.648 481.064 161.768 476.88L188.376 465.888C194.472 463.376 205.576 463.376 211.672 465.888L238.28 476.88C248.408 481.064 263.672 481.064 273.792 476.88L300.392 465.888C306.488 463.376 317.592 463.376 323.688 465.888L350.304 476.88C355.368 478.976 361.712 480.024 368.064 480.024C374.416 480.024 380.76 478.976 385.824 476.88L412.432 465.888C418.528 463.376 429.624 463.368 435.72 465.896C435.728 465.904 435.736 465.896 435.752 465.904C435.76 465.904 435.768 465.912 435.776 465.92L464 477.384V492.12L441.808 483.104C441.8 483.096 441.784 483.104 441.776 483.096C431.656 478.936 416.448 478.936 406.336 483.12V483.12Z" fill="#E0B084"/>
</g>
<defs>
<clipPath id="clip0">
<rect width="512" height="512" fill="white"/>
</clipPath>
</defs>
</svg>
