<svg fill="#E0B084" id="icons" enable-background="new 0 0 64 64" height="512" viewBox="0 0 64 64" width="512" xmlns="http://www.w3.org/2000/svg"><path d="m59.929 2.648c-.098-.258-.293-.467-.547-.571-.003-.001-.004-.003-.006-.004l-4.15-1.687c-.001 0-.003 0-.004-.001-1.265-.52-3.166-.519-4.43.003l-3.326 1.374c-.762.314-2.15.314-2.912 0l-3.327-1.374c-1.266-.523-3.174-.523-4.439 0l-3.325 1.374c-.762.314-2.15.314-2.912 0l-3.326-1.374c-1.266-.523-3.174-.523-4.439 0l-3.326 1.374c-.762.314-2.15.314-2.912 0l-3.328-1.373c-1.262-.521-3.162-.523-4.428-.004-.002.001-.004 0-.006.001l-4.162 1.686c-.002.001-.003.003-.006.004-.107.044-.201.112-.286.19-.063.057-.108.126-.154.196-.041.063-.082.123-.109.195-.04.107-.067.219-.067.335 0 .002-.002.004-.002.007v60.001c0 .068.026.129.039.193.012.062.01.123.034.183.001.003.003.004.004.007.006.015.018.026.024.041.045.095.102.179.17.252.023.025.051.046.077.069.063.056.132.102.207.14.032.016.063.032.098.045.111.042.227.07.347.07.125 0 .253-.023.376-.073l.013-.005.001-.001 4.148-1.681c.001-.001.002-.002.004-.003h.002c.762-.314 2.15-.314 2.912 0l3.326 1.374c1.266.523 3.174.523 4.439 0l3.326-1.374c.762-.314 2.15-.314 2.912 0l3.326 1.374c1.266.523 3.174.523 4.439 0l3.325-1.374c.762-.314 2.15-.314 2.912 0l3.327 1.374c.633.262 1.426.393 2.22.393s1.587-.131 2.22-.393l3.326-1.374c.762-.314 2.149-.315 2.911.001.001 0 .002 0 .004.001.001 0 .002.001.003.002l4.137 1.681s.001 0 .001.001l.013.005c.123.05.25.073.376.073.12 0 .235-.028.347-.07.035-.013.065-.029.099-.046.074-.037.142-.083.204-.138.027-.023.056-.045.08-.071.067-.073.123-.156.168-.25.007-.015.019-.026.025-.042.001-.003.003-.005.004-.007.027-.066.026-.135.038-.202.012-.059.036-.112.036-.174v-.012c0-.001 0-.003 0-.004v-3.997c0-.001 0-.003 0-.004v-13.993c0-.001 0-.003 0-.004v-13.993c0-.001 0-.003 0-.004v-13.993c0-.001 0-.003 0-.004v-13.993c0-.002-.001-.004-.001-.006-.001-.119-.028-.235-.07-.346zm-4.703 53.739c-.001 0-.003 0-.004-.001-1.265-.52-3.166-.52-4.43.003l-3.326 1.374c-.136.057-.297.099-.466.135v-11.967c.442-.063.863-.166 1.229-.317l3.326-1.374c.762-.314 2.149-.315 2.911.001.001 0 .002 0 .004.001.001 0 .002.001.003.002l3.527 1.432v11.838zm-46.434-.002c-.002.001-.004 0-.006.001l-2.786 1.129v-11.839l3.538-1.434c.001-.001.002-.002.004-.003h.002c.762-.314 2.15-.314 2.912 0l3.326 1.374c.362.15.78.252 1.218.315v11.967c-.164-.036-.321-.078-.454-.133l-3.326-1.374c-1.262-.521-3.162-.523-4.428-.003zm.746-40.137c.001-.001.002-.002.004-.003h.002c.762-.314 2.15-.314 2.912 0l3.326 1.374c.362.15.78.252 1.218.315v11.967c-.164-.036-.321-.078-.454-.133l-3.326-1.374c-1.262-.521-3.162-.523-4.428-.004-.002.001-.004 0-.006.001l-2.786 1.13v-11.839zm44.929-.002c.001 0 .002 0 .004.001.001 0 .002.001.003.002l3.526 1.433v11.838l-2.774-1.127c-.001 0-.003 0-.004-.001-1.265-.52-3.166-.52-4.43.003l-3.326 1.374c-.136.057-.297.099-.466.135v-11.967c.442-.063.863-.166 1.229-.317l3.326-1.374c.762-.315 2.15-.316 2.912 0zm.759 26.144c-.001-.001-.003 0-.004-.001-1.265-.521-3.166-.52-4.43.003l-3.326 1.374c-.136.056-.297.098-.466.134v-11.966c.442-.063.863-.166 1.229-.317l3.326-1.374c.762-.314 2.149-.315 2.911.001.001.001.002 0 .004.001.001 0 .002.001.003.002l3.527 1.432v11.838zm-46.434-.002c-.002.001-.004 0-.006.001l-2.786 1.129v-11.839l3.538-1.434c.001-.001.002-.002.004-.003h.002c.762-.314 2.15-.314 2.912 0l3.326 1.374c.362.149.78.252 1.218.315v11.967c-.164-.036-.321-.078-.454-.133l-3.326-1.374c-1.262-.521-3.162-.522-4.428-.003zm10.208-10.455c.439-.064.858-.166 1.222-.316l3.326-1.374c.762-.314 2.15-.314 2.912 0l3.326 1.374c.361.149.777.251 1.214.315v11.966c-.163-.036-.318-.077-.45-.132l-3.326-1.374c-1.266-.523-3.174-.523-4.439 0l-3.326 1.374c-.134.056-.292.098-.458.133v-11.966zm14 0c.44-.063.861-.166 1.226-.316l3.325-1.374c.762-.314 2.15-.314 2.912 0l3.327 1.374c.36.149.775.251 1.21.314v11.966c-.161-.035-.315-.077-.446-.131l-3.327-1.374c-1.266-.523-3.174-.523-4.439 0l-3.325 1.374c-.135.056-.294.098-.462.134v-11.967zm12-2.034c-.161-.035-.315-.077-.446-.131l-3.327-1.374c-1.266-.523-3.174-.523-4.439 0l-3.325 1.374c-.135.056-.294.098-.462.134v-11.966c.44-.063.861-.166 1.226-.316l3.325-1.374c.762-.314 2.15-.314 2.912 0l3.327 1.374c.36.149.775.251 1.21.314v11.965zm-14 .001c-.163-.036-.318-.077-.45-.132l-3.326-1.374c-1.266-.523-3.174-.523-4.439 0l-3.326 1.374c-.134.056-.292.098-.458.133v-11.965c.439-.064.858-.166 1.222-.316l3.326-1.374c.762-.314 2.15-.314 2.912 0l3.326 1.374c.361.149.777.251 1.214.315v11.965zm-12 16.03c.439-.064.858-.166 1.222-.316l3.326-1.374c.762-.314 2.15-.314 2.912 0l3.326 1.374c.361.149.777.251 1.214.315v11.966c-.163-.036-.318-.077-.45-.132l-3.326-1.374c-1.266-.523-3.174-.523-4.439 0l-3.326 1.374c-.134.056-.292.098-.458.133v-11.966zm14 0c.44-.063.861-.166 1.226-.316l3.325-1.374c.762-.314 2.15-.314 2.912 0l3.327 1.374c.36.149.775.251 1.21.314v11.966c-.161-.035-.315-.077-.446-.131l-3.327-1.374c-1.266-.523-3.174-.523-4.439 0l-3.325 1.374c-.135.056-.294.098-.462.134v-11.967zm15.229-42.32 3.326-1.374c.762-.314 2.149-.315 2.911.001.001.001.002 0 .004.001.001 0 .002.001.003.002l3.527 1.433v11.85l-2.774-1.127c-.001-.001-.003 0-.004-.001-1.265-.52-3.166-.52-4.43.003l-3.326 1.374c-.136.056-.297.098-.466.134v-11.978c.442-.064.863-.166 1.229-.318zm-14.003 0 3.325-1.374c.762-.314 2.15-.314 2.912 0l3.327 1.374c.36.15.775.251 1.21.315v11.978c-.161-.035-.315-.077-.446-.131l-3.327-1.374c-1.266-.523-3.174-.523-4.439 0l-3.325 1.374c-.135.056-.294.098-.462.134v-11.979c.439-.064.86-.166 1.225-.317zm-14.004 0 3.326-1.374c.762-.314 2.15-.314 2.912 0l3.326 1.374c.361.15.777.251 1.214.316v11.978c-.163-.036-.318-.077-.45-.132l-3.326-1.374c-1.266-.523-3.174-.523-4.439 0l-3.326 1.374c-.134.056-.292.098-.458.133v-11.978c.438-.065.857-.166 1.221-.317zm-7.766-1.374 3.326 1.374c.363.15.781.252 1.218.316v11.979c-.164-.036-.321-.078-.454-.133l-3.326-1.374c-1.262-.521-3.162-.522-4.428-.004-.002.001-.004 0-.006.001l-2.786 1.128v-11.85l3.538-1.434c.001-.001.002-.002.004-.003h.002c.762-.314 2.15-.314 2.912 0zm38.336 58.154-3.326 1.374c-.762.314-2.15.314-2.912 0l-3.327-1.374c-1.266-.523-3.174-.523-4.439 0l-3.325 1.374c-.762.314-2.15.314-2.912 0l-3.326-1.374c-1.266-.523-3.174-.523-4.439 0l-3.326 1.374c-.762.314-2.15.314-2.912 0l-3.328-1.374c-1.262-.521-3.162-.522-4.428-.004-.002.001-.004 0-.006.001l-2.786 1.129v-1.843l3.538-1.434c.001-.001.002-.002.004-.003h.002c.762-.314 2.15-.314 2.912 0l3.326 1.374c1.266.523 3.174.523 4.439 0l3.326-1.374c.762-.314 2.15-.314 2.912 0l3.326 1.374c1.266.523 3.174.523 4.439 0l3.325-1.374c.762-.314 2.15-.314 2.912 0l3.327 1.374c.633.262 1.426.393 2.22.393s1.587-.131 2.22-.393l3.326-1.374c.762-.314 2.149-.315 2.911.001.001.001.002 0 .004.001.001 0 .002.001.003.002l3.528 1.433v1.842l-2.774-1.127c-.001-.001-.003 0-.004-.001-1.265-.52-3.166-.52-4.43.003z"/></svg>