<svg fill="#E0B084" id="icons" enable-background="new 0 0 64 64" height="512" viewBox="0 0 64 64" width="512" xmlns="http://www.w3.org/2000/svg"><path d="m12.284 42.931c.029.03.067.049.101.075 3.673 2.584 8.031 3.992 12.615 3.992s8.942-1.408 12.615-3.992c.033-.026.071-.045.101-.075.999-.711 1.956-1.491 2.841-2.376 8.577-8.577 8.577-22.534 0-31.111-4.156-4.156-9.68-6.444-15.557-6.444s-11.401 2.288-15.557 6.443c-4.155 4.155-6.443 9.679-6.443 15.556 0 5.878 2.288 11.402 6.443 15.556.885.884 1.842 1.665 2.841 2.376zm1.744-1.21c.147-2.075 1.862-3.721 3.972-3.721h2.588l1.724 1.711c.011.011.026.015.037.024.075.068.157.122.248.164.029.014.057.026.087.037.106.038.216.063.33.064h.002.001c.112 0 .226-.026.335-.065.022-.009.044-.015.065-.024.017-.007.033-.01.049-.018l1.534-.773 1.565.789c.017.009.035.012.053.02.022.01.044.017.067.024.108.038.219.063.329.063h.001.002c.115-.001.227-.027.334-.066.03-.011.058-.023.086-.037.096-.045.185-.103.263-.176.009-.009.021-.011.028-.02l1.691-1.717h2.581c2.11 0 3.825 1.646 3.972 3.721-3.232 2.129-7.012 3.277-10.972 3.277s-7.74-1.148-10.972-3.277zm7.988-26.705c.553 0 1-.447 1-1v-2.721c1.31-.333 2.692-.33 4.002.009v2.712c0 .553.447 1 1 1s1-.447 1-1v-.902c2.139 1.248 3.59 3.429 3.904 5.902h-15.843c.314-2.488 1.778-4.679 3.937-5.922v.922c0 .552.447 1 1 1zm-6 6.987v-.987h18v.987zm.984 2h16v2c0 4.41-3.589 7.998-8 7.998s-8-3.588-8-7.998zm8 11.998c1.045 0 2.053-.162 3-.461v1.051l-1.186 1.205-1.364-.688c-.021-.011-.045-.009-.067-.019-.066-.028-.133-.043-.204-.057-.061-.012-.119-.022-.18-.022-.06 0-.118.011-.179.022-.071.014-.139.028-.206.058-.021.009-.044.007-.064.018l-1.341.676-1.209-1.2v-1.044c.947.299 1.955.461 3 .461zm-14.143-25.144c3.778-3.777 8.8-5.857 14.143-5.857s10.365 2.08 14.143 5.857c7.798 7.798 7.798 20.485 0 28.283-.439.439-.898.85-1.37 1.243-.709-2.525-3.025-4.383-5.773-4.383h-2v-1.352c2.983-1.732 5-4.955 5-8.646v-2h.016c.553 0 1-.447 1-1v-2.987c0-.553-.447-1-1-1h-.072c-.36-3.574-2.625-6.707-5.926-8.156v-.337c0-.009-.005-.016-.005-.023-.002-.058-.021-.11-.033-.166-.016-.078-.026-.156-.059-.227-.002-.005-.007-.009-.009-.015-.116-.239-.322-.419-.577-.505-2.135-.754-4.521-.756-6.65-.008-.01.003-.017.012-.025.016-.072.027-.131.072-.194.114-.046.031-.097.055-.137.093-.047.045-.078.102-.115.155-.036.052-.079.098-.104.155-.023.051-.028.108-.043.163-.019.072-.042.142-.044.217 0 .011-.006.02-.006.03v.323c-3.319 1.442-5.598 4.581-5.959 8.17h-.041c-.553 0-1 .447-1 1v2.987c0 .547.439.988.984.997v2.052c0 .006.003.011.003.017.024 3.663 2.031 6.857 4.997 8.58v1.353h-2c-2.748 0-5.064 1.858-5.772 4.384-.472-.394-.931-.804-1.37-1.243-3.779-3.777-5.859-8.799-5.859-14.142s2.08-10.365 5.857-14.142z"/><path d="m25 49.998c5.666 0 11.041-1.879 15.426-5.331l4.166 4.167-.707.707c-.391.391-.391 1.023 0 1.414l11.58 11.58c.944.944 2.2 1.465 3.536 1.465s2.591-.521 3.534-1.465c.944-.944 1.465-2.2 1.465-3.536 0-1.335-.52-2.589-1.464-3.532-.001 0-.001-.001-.001-.001l-11.58-11.583c-.391-.391-1.023-.391-1.414 0l-.708.708-4.166-4.167c7.698-9.803 7.04-24.072-1.989-33.102-4.722-4.721-11-7.322-17.678-7.322-6.677 0-12.955 2.601-17.678 7.322-4.721 4.721-7.322 10.999-7.322 17.677.001 6.678 2.601 12.956 7.322 17.678s11 7.321 17.678 7.321zm36.12 11.123c-1.131 1.136-3.109 1.132-4.241 0l-10.873-10.873.705-.706c.001 0 .002-.001.002-.001s0-.001.001-.002l2.823-2.823c.001-.001.003-.002.004-.003s.002-.003.003-.004l.704-.705 10.873 10.876h.001v.001c.566.565.878 1.317.878 2.118 0 .802-.312 1.556-.88 2.122zm-13.7-15.116-1.414 1.415-4.053-4.054c.244-.226.488-.453.725-.689.237-.237.464-.48.689-.725zm-38.684-37.269c4.345-4.343 10.121-6.736 16.264-6.736 6.144 0 11.92 2.393 16.264 6.736 8.967 8.967 8.967 23.559 0 32.526-4.345 4.344-10.121 6.736-16.264 6.736-6.144 0-11.92-2.392-16.264-6.735s-6.735-10.12-6.736-16.264c0-6.144 2.393-11.919 6.736-16.263z"/><path d="m25.046 41.017h-.011c-.552 0-.994.447-.994 1s.452 1 1.005 1c.552 0 1-.447 1-1s-.448-1-1-1z"/></svg>