<svg width="512" height="512" viewBox="0 0 512 512" fill="none" xmlns="http://www.w3.org/2000/svg">
<path d="M98.272 343.448C98.504 343.688 98.808 343.84 99.08 344.048C128.464 364.72 163.328 375.984 200 375.984C236.672 375.984 271.536 364.72 300.92 344.048C301.184 343.84 301.488 343.688 301.728 343.448C309.72 337.76 317.376 331.52 324.456 324.44C393.072 255.824 393.072 144.168 324.456 75.552C291.208 42.304 247.016 24 200 24C152.984 24 108.792 42.304 75.544 75.544C42.304 108.784 24 152.976 24 199.992C24 247.016 42.304 291.208 75.544 324.44C82.624 331.512 90.28 337.76 98.272 343.448V343.448ZM112.224 333.768C113.4 317.168 127.12 304 144 304H164.704L178.496 317.688C178.584 317.776 178.704 317.808 178.792 317.88C179.392 318.424 180.048 318.856 180.776 319.192C181.008 319.304 181.232 319.4 181.472 319.488C182.32 319.792 183.2 319.992 184.112 320H184.128H184.136C185.032 320 185.944 319.792 186.816 319.48C186.992 319.408 187.168 319.36 187.336 319.288C187.472 319.232 187.6 319.208 187.728 319.144L200 312.96L212.52 319.272C212.656 319.344 212.8 319.368 212.944 319.432C213.12 319.512 213.296 319.568 213.48 319.624C214.344 319.928 215.232 320.128 216.112 320.128H216.12H216.136C217.056 320.12 217.952 319.912 218.808 319.6C219.048 319.512 219.272 319.416 219.496 319.304C220.264 318.944 220.976 318.48 221.6 317.896C221.672 317.824 221.768 317.808 221.824 317.736L235.352 304H256C272.88 304 286.6 317.168 287.776 333.768C261.92 350.8 231.68 359.984 200 359.984C168.32 359.984 138.08 350.8 112.224 333.768V333.768ZM176.128 120.128C180.552 120.128 184.128 116.552 184.128 112.128V90.36C194.608 87.696 205.664 87.72 216.144 90.432V112.128C216.144 116.552 219.72 120.128 224.144 120.128C228.568 120.128 232.144 116.552 232.144 112.128V104.912C249.256 114.896 260.864 132.344 263.376 152.128H136.632C139.144 132.224 150.856 114.696 168.128 104.752V112.128C168.128 116.544 171.704 120.128 176.128 120.128V120.128ZM128.128 176.024V168.128H272.128V176.024H128.128ZM136 192.024H264V208.024C264 243.304 235.288 272.008 200 272.008C164.712 272.008 136 243.304 136 208.024V192.024ZM200 288.008C208.36 288.008 216.424 286.712 224 284.32V292.728L214.512 302.368L203.6 296.864C203.432 296.776 203.24 296.792 203.064 296.712C202.536 296.488 202 296.368 201.432 296.256C200.944 296.16 200.48 296.08 199.992 296.08C199.512 296.08 199.048 296.168 198.56 296.256C197.992 296.368 197.448 296.48 196.912 296.72C196.744 296.792 196.56 296.776 196.4 296.864L185.672 302.272L176 292.672V284.32C183.576 286.712 191.64 288.008 200 288.008ZM86.856 86.856C117.08 56.64 157.256 40 200 40C242.744 40 282.92 56.64 313.144 86.856C375.528 149.24 375.528 250.736 313.144 313.12C309.632 316.632 305.96 319.92 302.184 323.064C296.512 302.864 277.984 288 256 288H240V277.184C263.864 263.328 280 237.544 280 208.016V192.016H280.128C284.552 192.016 288.128 188.44 288.128 184.016V160.12C288.128 155.696 284.552 152.12 280.128 152.12H279.552C276.672 123.528 258.552 98.464 232.144 86.872V84.176C232.144 84.104 232.104 84.048 232.104 83.992C232.088 83.528 231.936 83.112 231.84 82.664C231.712 82.04 231.632 81.416 231.368 80.848C231.352 80.808 231.312 80.776 231.296 80.728C230.368 78.816 228.72 77.376 226.68 76.688C209.6 70.656 190.512 70.64 173.48 76.624C173.4 76.648 173.344 76.72 173.28 76.752C172.704 76.968 172.232 77.328 171.728 77.664C171.36 77.912 170.952 78.104 170.632 78.408C170.256 78.768 170.008 79.224 169.712 79.648C169.424 80.064 169.08 80.432 168.88 80.888C168.696 81.296 168.656 81.752 168.536 82.192C168.384 82.768 168.2 83.328 168.184 83.928C168.184 84.016 168.136 84.088 168.136 84.168V86.752C141.584 98.288 123.352 123.4 120.464 152.112H120.136C115.712 152.112 112.136 155.688 112.136 160.112V184.008C112.136 188.384 115.648 191.912 120.008 191.984V208.4C120.008 208.448 120.032 208.488 120.032 208.536C120.224 237.84 136.28 263.392 160.008 277.176V288H144.008C122.024 288 103.496 302.864 97.832 323.072C94.056 319.92 90.384 316.64 86.872 313.128C56.64 282.912 40 242.736 40 199.992C40 157.248 56.64 117.072 86.856 86.856Z" fill="#E0B084"/>
<path d="M200 399.984C245.328 399.984 288.328 384.952 323.408 357.336L356.736 390.672L351.08 396.328C347.952 399.456 347.952 404.512 351.08 407.64L443.72 500.28C451.272 507.832 461.32 512 472.008 512C482.696 512 492.736 507.832 500.28 500.28C507.832 492.728 512 482.68 512 471.992C512 461.312 507.84 451.28 500.288 443.736C500.28 443.736 500.28 443.728 500.28 443.728L407.64 351.064C404.512 347.936 399.456 347.936 396.328 351.064L390.664 356.728L357.336 323.392C418.92 244.968 413.656 130.816 341.424 58.576C303.648 20.808 253.424 0 200 0C146.584 0 96.36 20.808 58.576 58.576C20.808 96.344 0 146.568 0 199.992C0.008 253.416 20.808 303.64 58.576 341.416C96.344 379.192 146.576 399.984 200 399.984V399.984ZM488.96 488.968C479.912 498.056 464.088 498.024 455.032 488.968L368.048 401.984L373.688 396.336C373.696 396.336 373.704 396.328 373.704 396.328C373.704 396.328 373.704 396.32 373.712 396.312L396.296 373.728C396.304 373.72 396.32 373.712 396.328 373.704C396.336 373.696 396.344 373.68 396.352 373.672L401.984 368.032L488.968 455.04H488.976V455.048C493.504 459.568 496 465.584 496 471.992C496 478.408 493.504 484.44 488.96 488.968V488.968ZM379.36 368.04L368.048 379.36L335.624 346.928C337.576 345.12 339.528 343.304 341.424 341.416C343.32 339.52 345.136 337.576 346.936 335.616L379.36 368.04ZM69.888 69.888C104.648 35.144 150.856 16 200 16C249.152 16 295.36 35.144 330.112 69.888C401.848 141.624 401.848 258.36 330.112 330.096C295.352 364.848 249.144 383.984 200 383.984C150.848 383.984 104.64 364.848 69.888 330.104C35.136 295.36 16.008 249.144 16 199.992C16 150.84 35.144 104.64 69.888 69.888Z" fill="#E0B084"/>
<path d="M200.368 328.136H200.28C195.864 328.136 192.328 331.712 192.328 336.136C192.328 340.56 195.944 344.136 200.368 344.136C204.784 344.136 208.368 340.56 208.368 336.136C208.368 331.712 204.784 328.136 200.368 328.136Z" fill="#E0B084"/>
</svg>
